<?xml version="1.0" encoding="UTF-8"?>
<!DOCTYPE svg PUBLIC "-//W3C//DTD SVG 1.1//EN" "http://www.w3.org/Graphics/SVG/1.1/DTD/svg11.dtd">
<svg version="1.2" width="210mm" height="297mm" viewBox="0 0 21000 29700" preserveAspectRatio="xMidYMid" fill-rule="evenodd" stroke-width="28.222" stroke-linejoin="round" xmlns="http://www.w3.org/2000/svg" xmlns:ooo="http://xml.openoffice.org/svg/export" xmlns:xlink="http://www.w3.org/1999/xlink" xmlns:presentation="http://sun.com/xmlns/staroffice/presentation" xmlns:smil="http://www.w3.org/2001/SMIL20/" xmlns:anim="urn:oasis:names:tc:opendocument:xmlns:animation:1.0" xml:space="preserve">
 <defs class="ClipPathGroup">
  <clipPath id="presentation_clip_path" clipPathUnits="userSpaceOnUse">
   <rect x="0" y="0" width="21000" height="29700"/>
  </clipPath>
  <clipPath id="presentation_clip_path_shrink" clipPathUnits="userSpaceOnUse">
   <rect x="21" y="29" width="20958" height="29641"/>
  </clipPath>
 </defs>
 <defs class="TextShapeIndex">
  <g ooo:slide="id1" ooo:id-list="id3 id4 id5 id6 id7 id8 id9 id10 id11 id12 id13 id14 id15 id16 id17 id18 id19 id20 id21 id22 id23 id24 id25 id26 id27 id28 id29 id30 id31 id32 id33 id34 id35 id36 id37 id38 id39 id40"/>
 </defs>
 <defs class="EmbeddedBulletChars">
  <g id="bullet-char-template-57356" transform="scale(0.00048828125,-0.00048828125)">
   <path d="M 580,1141 L 1163,571 580,0 -4,571 580,1141 Z"/>
  </g>
  <g id="bullet-char-template-57354" transform="scale(0.00048828125,-0.00048828125)">
   <path d="M 8,1128 L 1137,1128 1137,0 8,0 8,1128 Z"/>
  </g>
  <g id="bullet-char-template-10146" transform="scale(0.00048828125,-0.00048828125)">
   <path d="M 174,0 L 602,739 174,1481 1456,739 174,0 Z M 1358,739 L 309,1346 659,739 1358,739 Z"/>
  </g>
  <g id="bullet-char-template-10132" transform="scale(0.00048828125,-0.00048828125)">
   <path d="M 2015,739 L 1276,0 717,0 1260,543 174,543 174,936 1260,936 717,1481 1274,1481 2015,739 Z"/>
  </g>
  <g id="bullet-char-template-10007" transform="scale(0.00048828125,-0.00048828125)">
   <path d="M 0,-2 C -7,14 -16,27 -25,37 L 356,567 C 262,823 215,952 215,954 215,979 228,992 255,992 264,992 276,990 289,987 310,991 331,999 354,1012 L 381,999 492,748 772,1049 836,1024 860,1049 C 881,1039 901,1025 922,1006 886,937 835,863 770,784 769,783 710,716 594,584 L 774,223 C 774,196 753,168 711,139 L 727,119 C 717,90 699,76 672,76 641,76 570,178 457,381 L 164,-76 C 142,-110 111,-127 72,-127 30,-127 9,-110 8,-76 1,-67 -2,-52 -2,-32 -2,-23 -1,-13 0,-2 Z"/>
  </g>
  <g id="bullet-char-template-10004" transform="scale(0.00048828125,-0.00048828125)">
   <path d="M 285,-33 C 182,-33 111,30 74,156 52,228 41,333 41,471 41,549 55,616 82,672 116,743 169,778 240,778 293,778 328,747 346,684 L 369,508 C 377,444 397,411 428,410 L 1163,1116 C 1174,1127 1196,1133 1229,1133 1271,1133 1292,1118 1292,1087 L 1292,965 C 1292,929 1282,901 1262,881 L 442,47 C 390,-6 338,-33 285,-33 Z"/>
  </g>
  <g id="bullet-char-template-9679" transform="scale(0.00048828125,-0.00048828125)">
   <path d="M 813,0 C 632,0 489,54 383,161 276,268 223,411 223,592 223,773 276,916 383,1023 489,1130 632,1184 813,1184 992,1184 1136,1130 1245,1023 1353,916 1407,772 1407,592 1407,412 1353,268 1245,161 1136,54 992,0 813,0 Z"/>
  </g>
  <g id="bullet-char-template-8226" transform="scale(0.00048828125,-0.00048828125)">
   <path d="M 346,457 C 273,457 209,483 155,535 101,586 74,649 74,723 74,796 101,859 155,911 209,963 273,989 346,989 419,989 480,963 531,910 582,859 608,796 608,723 608,648 583,586 532,535 482,483 420,457 346,457 Z"/>
  </g>
  <g id="bullet-char-template-8211" transform="scale(0.00048828125,-0.00048828125)">
   <path d="M -4,459 L 1135,459 1135,606 -4,606 -4,459 Z"/>
  </g>
  <g id="bullet-char-template-61548" transform="scale(0.00048828125,-0.00048828125)">
   <path d="M 173,740 C 173,903 231,1043 346,1159 462,1274 601,1332 765,1332 928,1332 1067,1274 1183,1159 1299,1043 1357,903 1357,740 1357,577 1299,437 1183,322 1067,206 928,148 765,148 601,148 462,206 346,322 231,437 173,577 173,740 Z"/>
  </g>
 </defs>
 <defs class="TextEmbeddedBitmaps"/>
 <g>
  <g id="id2" class="Master_Slide">
   <g id="bg-id2" class="Background"/>
   <g id="bo-id2" class="BackgroundObjects"/>
  </g>
 </g>
 <g class="SlideGroup">
  <g>
   <g id="container-id1">
    <g id="id1" class="Slide" clip-path="url(#presentation_clip_path)">
     <g class="Page">
      <g class="com.sun.star.drawing.CustomShape">
       <g id="id3">
        <rect class="BoundingBox" stroke="none" fill="none" x="1899" y="5899" width="2503" height="2003"/>
        <path fill="rgb(114,159,207)" stroke="none" d="M 3150,7900 L 1900,7900 1900,5900 4400,5900 4400,7900 3150,7900 Z"/>
        <path fill="none" stroke="rgb(52,101,164)" d="M 3150,7900 L 1900,7900 1900,5900 4400,5900 4400,7900 3150,7900 Z"/>
       </g>
      </g>
      <g class="com.sun.star.drawing.CustomShape">
       <g id="id4">
        <rect class="BoundingBox" stroke="none" fill="none" x="4399" y="5899" width="2503" height="2003"/>
        <path fill="rgb(114,159,207)" stroke="none" d="M 5650,7900 L 4400,7900 4400,5900 6900,5900 6900,7900 5650,7900 Z"/>
        <path fill="none" stroke="rgb(52,101,164)" d="M 5650,7900 L 4400,7900 4400,5900 6900,5900 6900,7900 5650,7900 Z"/>
       </g>
      </g>
      <g class="com.sun.star.drawing.CustomShape">
       <g id="id5">
        <rect class="BoundingBox" stroke="none" fill="none" x="6899" y="9699" width="2503" height="1103"/>
        <path fill="rgb(114,159,207)" stroke="none" d="M 8150,10800 L 6900,10800 6900,9700 9400,9700 9400,10800 8150,10800 Z"/>
        <path fill="none" stroke="rgb(52,101,164)" d="M 8150,10800 L 6900,10800 6900,9700 9400,9700 9400,10800 8150,10800 Z"/>
       </g>
      </g>
      <g class="com.sun.star.drawing.CustomShape">
       <g id="id6">
        <rect class="BoundingBox" stroke="none" fill="none" x="6899" y="5899" width="2503" height="2003"/>
        <path fill="rgb(114,159,207)" stroke="none" d="M 8150,7900 L 6900,7900 6900,5900 9400,5900 9400,7900 8150,7900 Z"/>
        <path fill="none" stroke="rgb(52,101,164)" d="M 8150,7900 L 6900,7900 6900,5900 9400,5900 9400,7900 8150,7900 Z"/>
       </g>
      </g>
      <g class="com.sun.star.drawing.CustomShape">
       <g id="id7">
        <rect class="BoundingBox" stroke="none" fill="none" x="4399" y="8799" width="2503" height="2003"/>
        <path fill="rgb(114,159,207)" stroke="none" d="M 5650,10800 L 4400,10800 4400,8800 6900,8800 6900,10800 5650,10800 Z"/>
        <path fill="none" stroke="rgb(52,101,164)" d="M 5650,10800 L 4400,10800 4400,8800 6900,8800 6900,10800 5650,10800 Z"/>
       </g>
      </g>
      <g class="com.sun.star.drawing.CustomShape">
       <g id="id8">
        <rect class="BoundingBox" stroke="none" fill="none" x="1899" y="8799" width="2503" height="2003"/>
        <path fill="rgb(114,159,207)" stroke="none" d="M 3150,10800 L 1900,10800 1900,8800 4400,8800 4400,10800 3150,10800 Z"/>
        <path fill="none" stroke="rgb(52,101,164)" d="M 3150,10800 L 1900,10800 1900,8800 4400,8800 4400,10800 3150,10800 Z"/>
       </g>
      </g>
      <g class="com.sun.star.drawing.CustomShape">
       <g id="id9">
        <rect class="BoundingBox" stroke="none" fill="none" x="6899" y="8799" width="1403" height="903"/>
        <path fill="rgb(114,159,207)" stroke="none" d="M 7600,9700 L 6900,9700 6900,8800 8300,8800 8300,9700 7600,9700 Z"/>
        <path fill="none" stroke="rgb(52,101,164)" d="M 7600,9700 L 6900,9700 6900,8800 8300,8800 8300,9700 7600,9700 Z"/>
       </g>
      </g>
      <g class="com.sun.star.drawing.CustomShape">
       <g id="id10">
        <rect class="BoundingBox" stroke="none" fill="none" x="8299" y="8799" width="1103" height="903"/>
        <path fill="rgb(114,159,207)" stroke="none" d="M 8850,9700 L 8300,9700 8300,8800 9400,8800 9400,9700 8850,9700 Z"/>
        <path fill="none" stroke="rgb(52,101,164)" d="M 8850,9700 L 8300,9700 8300,8800 9400,8800 9400,9700 8850,9700 Z"/>
       </g>
      </g>
      <g class="com.sun.star.drawing.CustomShape">
       <g id="id11">
        <rect class="BoundingBox" stroke="none" fill="none" x="1899" y="7899" width="1403" height="903"/>
        <path fill="rgb(114,159,207)" stroke="none" d="M 2600,8800 L 1900,8800 1900,7900 3300,7900 3300,8800 2600,8800 Z"/>
        <path fill="none" stroke="rgb(52,101,164)" d="M 2600,8800 L 1900,8800 1900,7900 3300,7900 3300,8800 2600,8800 Z"/>
       </g>
      </g>
      <g class="com.sun.star.drawing.CustomShape">
       <g id="id12">
        <rect class="BoundingBox" stroke="none" fill="none" x="9399" y="5899" width="4703" height="6003"/>
        <path fill="rgb(114,159,207)" stroke="none" d="M 11750,11900 L 9400,11900 9400,5900 14100,5900 14100,11900 11750,11900 Z"/>
        <path fill="none" stroke="rgb(52,101,164)" d="M 11750,11900 L 9400,11900 9400,5900 14100,5900 14100,11900 11750,11900 Z"/>
       </g>
      </g>
      <g class="com.sun.star.drawing.CustomShape">
       <g id="id13">
        <rect class="BoundingBox" stroke="none" fill="none" x="7699" y="1599" width="1703" height="1403"/>
        <path fill="rgb(114,159,207)" stroke="none" d="M 8550,3000 L 7700,3000 7700,1600 9400,1600 9400,3000 8550,3000 Z"/>
        <path fill="none" stroke="rgb(52,101,164)" d="M 8550,3000 L 7700,3000 7700,1600 9400,1600 9400,3000 8550,3000 Z"/>
       </g>
      </g>
      <g class="com.sun.star.drawing.CustomShape">
       <g id="id14">
        <rect class="BoundingBox" stroke="none" fill="none" x="7699" y="3899" width="1703" height="1703"/>
        <path fill="rgb(114,159,207)" stroke="none" d="M 8550,5600 L 7700,5600 7700,3900 9400,3900 9400,5600 8550,5600 Z"/>
        <path fill="none" stroke="rgb(52,101,164)" d="M 8550,5600 L 7700,5600 7700,3900 9400,3900 9400,5600 8550,5600 Z"/>
       </g>
      </g>
      <g class="com.sun.star.drawing.CustomShape">
       <g id="id15">
        <rect class="BoundingBox" stroke="none" fill="none" x="9399" y="1599" width="2403" height="2303"/>
        <path fill="rgb(114,159,207)" stroke="none" d="M 10600,3900 L 9400,3900 9400,1600 11800,1600 11800,3900 10600,3900 Z"/>
        <path fill="none" stroke="rgb(52,101,164)" d="M 10600,3900 L 9400,3900 9400,1600 11800,1600 11800,3900 10600,3900 Z"/>
       </g>
      </g>
      <g class="com.sun.star.drawing.CustomShape">
       <g id="id16">
        <rect class="BoundingBox" stroke="none" fill="none" x="7699" y="2999" width="1703" height="903"/>
        <path fill="rgb(114,159,207)" stroke="none" d="M 8550,3900 L 7700,3900 7700,3000 9400,3000 9400,3900 8550,3900 Z"/>
        <path fill="none" stroke="rgb(52,101,164)" d="M 8550,3900 L 7700,3900 7700,3000 9400,3000 9400,3900 8550,3900 Z"/>
       </g>
      </g>
      <g class="com.sun.star.drawing.CustomShape">
       <g id="id17">
        <rect class="BoundingBox" stroke="none" fill="none" x="3299" y="7899" width="6103" height="903"/>
        <path fill="rgb(114,159,207)" stroke="none" d="M 6350,8800 L 3300,8800 3300,7900 9400,7900 9400,8800 6350,8800 Z"/>
        <path fill="none" stroke="rgb(52,101,164)" d="M 6350,8800 L 3300,8800 3300,7900 9400,7900 9400,8800 6350,8800 Z"/>
       </g>
      </g>
      <g class="com.sun.star.drawing.CustomShape">
       <g id="id18">
        <rect class="BoundingBox" stroke="none" fill="none" x="11799" y="1599" width="2403" height="2303"/>
        <path fill="rgb(114,159,207)" stroke="none" d="M 13000,3900 L 11800,3900 11800,1600 14200,1600 14200,3900 13000,3900 Z"/>
        <path fill="none" stroke="rgb(52,101,164)" d="M 13000,3900 L 11800,3900 11800,1600 14200,1600 14200,3900 13000,3900 Z"/>
       </g>
      </g>
      <g class="com.sun.star.drawing.CustomShape">
       <g id="id19">
        <rect class="BoundingBox" stroke="none" fill="none" x="9399" y="3799" width="4803" height="903"/>
        <path fill="rgb(114,159,207)" stroke="none" d="M 11800,4700 L 9400,4700 9400,3800 14200,3800 14200,4700 11800,4700 Z"/>
        <path fill="none" stroke="rgb(52,101,164)" d="M 11800,4700 L 9400,4700 9400,3800 14200,3800 14200,4700 11800,4700 Z"/>
       </g>
      </g>
      <g class="com.sun.star.drawing.CustomShape">
       <g id="id20">
        <rect class="BoundingBox" stroke="none" fill="none" x="8299" y="10799" width="1103" height="1103"/>
        <path fill="rgb(114,159,207)" stroke="none" d="M 8850,11900 L 8300,11900 8300,10800 9400,10800 9400,11900 8850,11900 Z"/>
        <path fill="none" stroke="rgb(52,101,164)" d="M 8850,11900 L 8300,11900 8300,10800 9400,10800 9400,11900 8850,11900 Z"/>
       </g>
      </g>
      <g class="com.sun.star.drawing.CustomShape">
       <g id="id21">
        <rect class="BoundingBox" stroke="none" fill="none" x="5499" y="9599" width="503" height="503"/>
        <path  id="l6" onclick="window.parent.exec_url(this.id)" fill="#00ff00" stroke="none" d="M 5750,9600 C 5892,9600 6000,9708 6000,9850 6000,9992 5892,10100 5750,10100 5608,10100 5500,9992 5500,9850 5500,9708 5608,9600 5750,9600 Z"/>
        <path fill="none" stroke="rgb(52,101,164)" d="M 5750,9600 C 5892,9600 6000,9708 6000,9850 6000,9992 5892,10100 5750,10100 5608,10100 5500,9992 5500,9850 5500,9708 5608,9600 5750,9600 Z"/>
       </g>
      </g>
      <g class="com.sun.star.drawing.CustomShape">
       <g id="id22">
        <rect class="BoundingBox" stroke="none" fill="none" x="2899" y="9599" width="503" height="503"/>
        <path  id="l3" onclick="window.parent.exec_url(this.id)" fill="#00ff0d" stroke="none" d="M 3150,9600 C 3292,9600 3400,9708 3400,9850 3400,9992 3292,10100 3150,10100 3008,10100 2900,9992 2900,9850 2900,9708 3008,9600 3150,9600 Z"/>
        <path fill="none" stroke="rgb(52,101,164)" d="M 3150,9600 C 3292,9600 3400,9708 3400,9850 3400,9992 3292,10100 3150,10100 3008,10100 2900,9992 2900,9850 2900,9708 3008,9600 3150,9600 Z"/>
       </g>
      </g>
      <g class="com.sun.star.drawing.CustomShape">
       <g id="id23">
        <rect class="BoundingBox" stroke="none" fill="none" x="2799" y="6699" width="503" height="503"/>
        <path  id="l1" onclick="window.parent.exec_url(this.id)" fill="#09ff00" stroke="none" d="M 3050,6700 C 3192,6700 3300,6808 3300,6950 3300,7092 3192,7200 3050,7200 2908,7200 2800,7092 2800,6950 2800,6808 2908,6700 3050,6700 Z"/>
        <path fill="none" stroke="rgb(52,101,164)" d="M 3050,6700 C 3192,6700 3300,6808 3300,6950 3300,7092 3192,7200 3050,7200 2908,7200 2800,7092 2800,6950 2800,6808 2908,6700 3050,6700 Z"/>
       </g>
      </g>
      <g class="com.sun.star.drawing.CustomShape">
       <g id="id24">
        <rect class="BoundingBox" stroke="none" fill="none" x="5399" y="6699" width="503" height="503"/>
        <path  id="l4" onclick="window.parent.exec_url(this.id)" fill="#00ff37" stroke="none" d="M 5650,6700 C 5792,6700 5900,6808 5900,6950 5900,7092 5792,7200 5650,7200 5508,7200 5400,7092 5400,6950 5400,6808 5508,6700 5650,6700 Z"/>
        <path fill="none" stroke="rgb(52,101,164)" d="M 5650,6700 C 5792,6700 5900,6808 5900,6950 5900,7092 5792,7200 5650,7200 5508,7200 5400,7092 5400,6950 5400,6808 5508,6700 5650,6700 Z"/>
       </g>
      </g>
      <g class="com.sun.star.drawing.CustomShape">
       <g id="id25">
        <rect class="BoundingBox" stroke="none" fill="none" x="7899" y="6699" width="503" height="503"/>
        <path id="l7" onclick="window.parent.exec_url(this.id)" fill="#00ff15" stroke="none" d="M 8150,6700 C 8292,6700 8400,6808 8400,6950 8400,7092 8292,7200 8150,7200 8008,7200 7900,7092 7900,6950 7900,6808 8008,6700 8150,6700 Z"/>
        <path fill="none" stroke="rgb(52,101,164)" d="M 8150,6700 C 8292,6700 8400,6808 8400,6950 8400,7092 8292,7200 8150,7200 8008,7200 7900,7092 7900,6950 7900,6808 8008,6700 8150,6700 Z"/>
       </g>
      </g>
      <g class="com.sun.star.drawing.CustomShape">
       <g id="id26">
        <path id="l12" onclick="window.parent.exec_url(this.id)" fill="#00ff73" stroke="none" d="M 10550,10400 C 10692,10400 10800,10508 10800,10650 10800,10792 10692,10900 10550,10900 10408,10900 10300,10792 10300,10650 10300,10508 10408,10400 10550,10400 Z"/>
       </g>
      </g>
      <g class="com.sun.star.drawing.CustomShape">
       <g id="id27">
        <rect class="BoundingBox" stroke="none" fill="none" x="10299" y="7399" width="503" height="503"/>
        <path id="l11" onclick="window.parent.exec_url(this.id)" fill="#00ff2a" stroke="none" d="M 10550,7400 C 10692,7400 10800,7508 10800,7650 10800,7792 10692,7900 10550,7900 10408,7900 10300,7792 10300,7650 10300,7508 10408,7400 10550,7400 Z"/>
        <path fill="none" stroke="rgb(52,101,164)" d="M 10550,7400 C 10692,7400 10800,7508 10800,7650 10800,7792 10692,7900 10550,7900 10408,7900 10300,7792 10300,7650 10300,7508 10408,7400 10550,7400 Z"/>
       </g>
      </g>
      <g class="com.sun.star.drawing.CustomShape">
       <g id="id28">
        <rect class="BoundingBox" stroke="none" fill="none" x="12699" y="7499" width="503" height="503"/>
        <path id="l13" onclick="window.parent.exec_url(this.id)" fill="#00ff0d" stroke="none" d="M 12950,7500 C 13092,7500 13200,7608 13200,7750 13200,7892 13092,8000 12950,8000 12808,8000 12700,7892 12700,7750 12700,7608 12808,7500 12950,7500 Z"/>
        <path fill="none" stroke="rgb(52,101,164)" d="M 12950,7500 C 13092,7500 13200,7608 13200,7750 13200,7892 13092,8000 12950,8000 12808,8000 12700,7892 12700,7750 12700,7608 12808,7500 12950,7500 Z"/>
       </g>
      </g>
      <g class="com.sun.star.drawing.CustomShape">
       <g id="id29">
        <rect class="BoundingBox" stroke="none" fill="none" x="11599" y="3999" width="503" height="503"/>
        <path id="l20" onclick="window.parent.exec_url(this.id)" fill="#2bff00" stroke="none" d="M 11850,4000 C 11992,4000 12100,4108 12100,4250 12100,4392 11992,4500 11850,4500 11708,4500 11600,4392 11600,4250 11600,4108 11708,4000 11850,4000 Z"/>
        <path fill="none" stroke="rgb(52,101,164)" d="M 11850,4000 C 11992,4000 12100,4108 12100,4250 12100,4392 11992,4500 11850,4500 11708,4500 11600,4392 11600,4250 11600,4108 11708,4000 11850,4000 Z"/>
       </g>
      </g>
      <g class="com.sun.star.drawing.CustomShape">
       <g id="id30">
        <rect class="BoundingBox" stroke="none" fill="none" x="8299" y="4499" width="503" height="503"/>
        <path id="l18" onclick="window.parent.exec_url(this.id)" fill="#2bff00" stroke="none" d="M 8550,4500 C 8692,4500 8800,4608 8800,4750 8800,4892 8692,5000 8550,5000 8408,5000 8300,4892 8300,4750 8300,4608 8408,4500 8550,4500 Z"/>
        <path fill="none" stroke="rgb(52,101,164)" d="M 8550,4500 C 8692,4500 8800,4608 8800,4750 8800,4892 8692,5000 8550,5000 8408,5000 8300,4892 8300,4750 8300,4608 8408,4500 8550,4500 Z"/>
       </g>
      </g>
      <g class="com.sun.star.drawing.CustomShape">
       <g id="id31">
        <rect class="BoundingBox" stroke="none" fill="none" x="8299" y="3199" width="503" height="503"/>
        <path id="l17" onclick="window.parent.exec_url(this.id)" fill="#00ff37" stroke="none" d="M 8550,3200 C 8692,3200 8800,3308 8800,3450 8800,3592 8692,3700 8550,3700 8408,3700 8300,3592 8300,3450 8300,3308 8408,3200 8550,3200 Z"/>
        <path fill="none" stroke="rgb(52,101,164)" d="M 8550,3200 C 8692,3200 8800,3308 8800,3450 8800,3592 8692,3700 8550,3700 8408,3700 8300,3592 8300,3450 8300,3308 8408,3200 8550,3200 Z"/>
       </g>
      </g>
      <g class="com.sun.star.drawing.CustomShape">
       <g id="id32">
        <path id="l16" onclick="window.parent.exec_url(this.id)" fill="#37f537" stroke="rgb(52,101,164)" d="M 8550,2000 C 8692,2000 8800,2108 8800,2250 8800,2392 8692,2500 8550,2500 8408,2500 8300,2392 8300,2250 8300,2108 8408,2000 8550,2000 Z"/>
       </g>
      </g>
      <g class="com.sun.star.drawing.CustomShape">
       <g id="id33">
        <rect class="BoundingBox" stroke="none" fill="none" x="10399" y="2399" width="503" height="503"/>
        <path id="l19" onclick="window.parent.exec_url(this.id)" fill="#00ff4c" stroke="none" d="M 10650,2400 C 10792,2400 10900,2508 10900,2650 10900,2792 10792,2900 10650,2900 10508,2900 10400,2792 10400,2650 10400,2508 10508,2400 10650,2400 Z"/>
        <path fill="none" stroke="rgb(52,101,164)" d="M 10650,2400 C 10792,2400 10900,2508 10900,2650 10900,2792 10792,2900 10650,2900 10508,2900 10400,2792 10400,2650 10400,2508 10508,2400 10650,2400 Z"/>
       </g>
      </g>
      <g class="com.sun.star.drawing.CustomShape">
       <g id="id34">
        <rect class="BoundingBox" stroke="none" fill="none" x="12799" y="2399" width="503" height="503"/>
        <path id="l21" onclick="window.parent.exec_url(this.id)" fill="#00ff37" stroke="none" d="M 13050,2400 C 13192,2400 13300,2508 13300,2650 13300,2792 13192,2900 13050,2900 12908,2900 12800,2792 12800,2650 12800,2508 12908,2400 13050,2400 Z"/>
        <path fill="none" stroke="rgb(52,101,164)" d="M 13050,2400 C 13192,2400 13300,2508 13300,2650 13300,2792 13192,2900 13050,2900 12908,2900 12800,2792 12800,2650 12800,2508 12908,2400 13050,2400 Z"/>
       </g>
      </g>
      <g class="com.sun.star.drawing.CustomShape">
       <g id="id35">
        <rect class="BoundingBox" stroke="none" fill="none" x="2399" y="8099" width="503" height="503"/>
        <path id="l2" onclick="window.parent.exec_url(this.id)" fill="#48ff00" stroke="none" d="M 2650,8100 C 2792,8100 2900,8208 2900,8350 2900,8492 2792,8600 2650,8600 2508,8600 2400,8492 2400,8350 2400,8208 2508,8100 2650,8100 Z"/>
        <path fill="none" stroke="rgb(52,101,164)" d="M 2650,8100 C 2792,8100 2900,8208 2900,8350 2900,8492 2792,8600 2650,8600 2508,8600 2400,8492 2400,8350 2400,8208 2508,8100 2650,8100 Z"/>
       </g>
      </g>
      <g class="com.sun.star.drawing.CustomShape">
       <g id="id36">
        <rect class="BoundingBox" stroke="none" fill="none" x="6099" y="8099" width="503" height="503"/>
        <path id="l5" onclick="window.parent.exec_url(this.id)" fill="#09ff00" stroke="none" d="M 6350,8100 C 6492,8100 6600,8208 6600,8350 6600,8492 6492,8600 6350,8600 6208,8600 6100,8492 6100,8350 6100,8208 6208,8100 6350,8100 Z"/>
        <path fill="none" stroke="rgb(52,101,164)" d="M 6350,8100 C 6492,8100 6600,8208 6600,8350 6600,8492 6492,8600 6350,8600 6208,8600 6100,8492 6100,8350 6100,8208 6208,8100 6350,8100 Z"/>
       </g>
      </g>
      <g class="com.sun.star.drawing.CustomShape">
       <g id="id37">
        <rect class="BoundingBox" stroke="none" fill="none" x="5399" y="11199" width="503" height="503"/>
        <path id="l14" onclick="window.parent.exec_url(this.id)" fill="#15ff00" stroke="none" d="M 5650,11200 C 5792,11200 5900,11308 5900,11450 5900,11592 5792,11700 5650,11700 5508,11700 5400,11592 5400,11450 5400,11308 5508,11200 5650,11200 Z"/>
        <path fill="none" stroke="rgb(52,101,164)" d="M 5650,11200 C 5792,11200 5900,11308 5900,11450 5900,11592 5792,11700 5650,11700 5508,11700 5400,11592 5400,11450 5400,11308 5508,11200 5650,11200 Z"/>
       </g>
      </g>
      <g class="com.sun.star.drawing.CustomShape">
       <g id="id38">
        <rect class="BoundingBox" stroke="none" fill="none" x="8199" y="9999" width="503" height="503"/>
        <path id="l10" onclick="window.parent.exec_url(this.id)" fill="#00ff0d" stroke="none" d="M 8450,10000 C 8592,10000 8700,10108 8700,10250 8700,10392 8592,10500 8450,10500 8308,10500 8200,10392 8200,10250 8200,10108 8308,10000 8450,10000 Z"/>
        <path fill="none" stroke="rgb(52,101,164)" d="M 8450,10000 C 8592,10000 8700,10108 8700,10250 8700,10392 8592,10500 8450,10500 8308,10500 8200,10392 8200,10250 8200,10108 8308,10000 8450,10000 Z"/>
       </g>
      </g>
      <g class="com.sun.star.drawing.CustomShape">
       <g id="id39">
        <rect class="BoundingBox" stroke="none" fill="none" x="7399" y="8999" width="503" height="503"/>
        <path id="l8" onclick="window.parent.exec_url(this.id)" fill="#33ff00" stroke="none" d="M 7650,9000 C 7792,9000 7900,9108 7900,9250 7900,9392 7792,9500 7650,9500 7508,9500 7400,9392 7400,9250 7400,9108 7508,9000 7650,9000 Z"/>
        <path fill="none" stroke="rgb(52,101,164)" d="M 7650,9000 C 7792,9000 7900,9108 7900,9250 7900,9392 7792,9500 7650,9500 7508,9500 7400,9392 7400,9250 7400,9108 7508,9000 7650,9000 Z"/>
       </g>
      </g>
      <g class="com.sun.star.drawing.CustomShape">
       <g id="id40">
        <rect class="BoundingBox" stroke="none" fill="none" x="8699" y="8999" width="503" height="503"/>
        <path id="l9" onclick="window.parent.exec_url(this.id)" fill="#09ff00" stroke="none" d="M 8950,9000 C 9092,9000 9200,9108 9200,9250 9200,9392 9092,9500 8950,9500 8808,9500 8700,9392 8700,9250 8700,9108 8808,9000 8950,9000 Z"/>
        <path fill="none" stroke="rgb(52,101,164)" d="M 8950,9000 C 9092,9000 9200,9108 9200,9250 9200,9392 9092,9500 8950,9500 8808,9500 8700,9392 8700,9250 8700,9108 8808,9000 8950,9000 Z"/>
       </g>
      </g>
     </g>
    </g>
   </g>
  </g>
 </g>
</svg>